<svg xmlns="http://www.w3.org/2000/svg" version="1.1" xmlns:xlink="http://www.w3.org/1999/xlink" xmlns:svgjs="http://svgjs.dev/svgjs" width="1440" height="560" preserveAspectRatio="none" viewBox="0 0 1440 560"><g mask="url(&quot;#SvgjsMask3016&quot;)" fill="none"><rect width="1440" height="560" x="0" y="0" fill="url(&quot;#SvgjsLinearGradient3017&quot;)"></rect><path d="M1165.72-5.14C1030.39 3.46 933.37 256.88 691.31 257.85 449.25 258.82 454.11 187.85 216.9 187.85-20.31 187.85-137.62 257.66-257.51 257.85" stroke="rgba(0, 137, 255, 0.1)" stroke-width="2"></path><path d="M927.81-94.98C781.62-81.24 707.17 214.49 435.75 225.71 164.32 236.93 71.57 364.36-56.32 365.71" stroke="rgba(0, 137, 255, 0.1)" stroke-width="2"></path><path d="M770.61-107.05C668.41-80.49 728.48 184.16 480.32 199.74 232.16 215.32 51.22 371.5-100.27 373.34" stroke="rgba(0, 137, 255, 0.1)" stroke-width="2"></path><path d="M1018.25-106.21C918.16-103.64 942.11 33.86 645.28 39.72 348.45 45.58 96.16 288.35-100.65 291.72" stroke="rgba(0, 137, 255, 0.1)" stroke-width="2"></path><path d="M1142.58-35.72C1015.93-26.42 928.59 220.67 704.69 221.72 480.79 222.77 485.74 151.72 266.8 151.72 47.85 151.72-60.23 221.5-171.09 221.72" stroke="rgba(0, 137, 255, 0.1)" stroke-width="2"></path></g><defs><mask id="SvgjsMask3016"><rect width="1440" height="560" fill="#ffffff"></rect></mask><linearGradient x1="15.28%" y1="-39.29%" x2="84.72%" y2="139.29%" gradientUnits="userSpaceOnUse" id="SvgjsLinearGradient3017"><stop stop-color="rgba(0, 0, 0, 1)" offset="0.07"></stop><stop stop-color="rgba(11, 67, 85, 1)" offset="0.34"></stop><stop stop-color="rgba(0, 0, 0, 1)" offset="0.69"></stop></linearGradient></defs></svg>